SEEDBOX SUPPORTED, AS ALWAYS!

*******************************************************************************
                           Back to the Beyond (2011)
*******************************************************************************

-------------------------------------------------------------------------------
                              General Information
-------------------------------------------------------------------------------
Type.................: Movie



Video Format.........: AVI
Video Bitrate........: 1481
Resolution...........: 720 x 414
Color................: 8 bit
FPS..................: 23.976
Source...............: DVD 16x9
Original Format......: NTSC
Genre................: Horror
IMDb Rating..........: 2
Movie Information....: http://www.imdb.com/title/tt1839414

-------------------------------------------------------------------------------
                                 Release Notes
-------------------------------------------------------------------------------
When a paranormal research team investigates a haunting dramatized on a classic 
television series, they encounter a sinister supernatural force thought to be 
fictional. 

General
Complete name                            : G:Back To The Beyond 
(2012)BACK_TO_THE_BEYOND.Title4.avi
Format                                   : AVI
Format/Info                              : Audio Video Interleave
File size                                : 804 MiB
Duration                                 : 1h 15mn
Overall bit rate                         : 1 481 Kbps
Movie name                               : BACK_TO_THE_BEYOND.Title4.DVDRip
Writing application                      : Lavf53.21.0
Original source form/Name                : BACK_TO_THE_BEYOND

Video
ID                                       : 0
Format                                   : MPEG-4 Visual
Format profile                           : Advanced Simple@L5
Format settings, BVOP                    : 2
Format settings, QPel                    : No
Format settings, GMC                     : No warppoints
Format settings, Matrix                  : Default (H.263)
Muxing mode                              : Packed bitstream
Codec ID                                 : XVID
Codec ID/Hint                            : XviD
Duration                                 : 1h 15mn
Bit rate                                 : 1 342 Kbps
Width                                    : 720 pixels
Height                                   : 414 pixels
Display aspect ratio                     : 1.739
Frame rate                               : 23.976 fps
Color space                              : YUV
Chroma subsampling                       : 4:2:0
Bit depth                                : 8 bits
Scan type                                : Progressive
Compression mode                         : Lossy
Bits/(Pixel*Frame)                       : 0.188
Stream size                              : 728 MiB (91%)
Writing library                          : XviD 1.2.1 (UTC 2008-12-04)

Audio
ID                                       : 1
Format                                   : AC-3
Format/Info                              : Audio Coding 3
Mode extension                           : CM (complete main)
Format settings, Endianness              : Big
Codec ID                                 : 2000
Duration                                 : 1h 15mn
Bit rate mode                            : Constant
Bit rate                                 : 128 Kbps
Channel(s)                               : 2 channels
Channel positions                        : Front: L R
Sampling rate                            : 48.0 KHz
Bit depth                                : 16 bits
Compression mode                         : Lossy
Stream size                              : 69.4 MiB (9%)
Alignment                                : Aligned on interleaves
Interleave, duration                     : 32 ms (0.77 video frame)

General
Complete name                            : G:Back To The Beyond (2012)info.txt
File size                                : 2.76 KiB



Enjoy!

RadioResearch



-------------------------------------------------------------------------------
Generated with Cool NFO Creator - http://fly.to/coolbeans
-------------------------------------------------------------------------------
